<svg width="42" height="32" viewBox="0 0 42 32" fill="none" xmlns="http://www.w3.org/2000/svg">
<g clip-path="url(#clip0)">
<path d="M23.1417 23.724C23.128 25.8118 22.0523 28.459 20.8438 28.5423C19.6354 28.6257 18.7094 26.0441 18.7232 23.9563C18.737 21.8686 19.7443 20.9612 20.9988 20.942C22.2072 20.8586 23.2109 21.6453 23.1417 23.724Z" fill="white"/>
<path fill-rule="evenodd" clip-rule="evenodd" d="M13.9908 23.9081C15.5498 24.7869 17.2662 25.4092 19.0013 25.9216C17.2756 25.3542 15.6332 24.6312 14.1295 23.7615C12.6445 22.782 11.3076 21.601 10.2943 20.1909C9.2255 18.7716 8.59108 17.1417 8.30762 15.4566C8.07639 13.989 8.12101 12.5668 8.34736 11.1408C8.9554 11.1129 9.54276 11.1263 10.1045 11.1708C9.82476 12.9698 10.0106 14.8201 10.5794 16.5127C11.2134 18.4819 12.3465 20.1945 13.8125 21.6231C15.2785 23.0516 17.0961 24.0862 18.9696 24.7911C20.8432 25.4959 22.8281 25.8801 24.8503 26.0444C22.8928 25.8343 20.9172 25.3951 19.0717 24.5254C17.2628 23.7748 15.5747 22.6485 14.2195 21.2383C12.8642 19.828 11.842 18.1337 11.3555 16.3019C10.8732 14.6629 10.8155 12.9149 11.1431 11.2906C11.8684 11.4005 12.5394 11.557 13.143 11.7336C12.8366 13.5762 13.0797 15.4459 13.7749 17.156C14.483 19.0246 15.7363 20.7007 17.2858 21.9737C18.8353 23.2467 20.6717 24.1714 22.6474 24.6106C24.6231 25.0499 26.6827 24.9944 28.5861 24.5175C26.6921 24.9394 24.6511 24.885 22.7494 24.345C20.8384 23.8599 19.1222 22.8985 17.6928 21.5888C16.2634 20.2792 15.167 18.6855 14.5604 16.8901C14.0178 15.3569 13.8554 13.6673 14.1484 12.0653C15.1646 12.4396 15.8931 12.8301 16.2374 13.0376C18.3043 14.2832 19.0416 15.3092 19.7042 16.7751C25.1311 13.3664 25.5558 16.2577 26.0102 19.3507C26.3671 21.7806 26.7424 24.3349 29.5754 24.057C29.2518 24.2861 28.8727 24.5061 28.4382 24.717C25.4523 26.2021 24.1028 26.7706 18.1191 25.7825C8.47856 24.1907 6.02285 17.8506 6.03947 13.3883C6.05285 12.715 6.16404 11.9915 6.28383 11.394C6.62713 11.3248 6.96614 11.2704 7.30012 11.2292C7.16468 12.6672 7.24167 14.1477 7.5503 15.5576C7.92587 17.3708 8.72646 19.0282 9.8506 20.4566C10.9747 21.8849 12.4318 23.0293 13.9908 23.9081ZM6.28383 11.394L6.59913 10.0896C6.59913 10.0896 6.43466 10.6418 6.28383 11.394Z" fill="white"/>
<path fill-rule="evenodd" clip-rule="evenodd" d="M34.2048 5.03547C34.8437 5.60921 35.6928 6.37162 36.7581 6.54747C38.3882 6.81658 39.6578 6.1524 40.4577 5.73396C41.18 5.35608 41.5193 5.1786 41.3951 6.06979C41.0779 7.93869 40.2814 9.27641 37.5839 9.73522C37.2673 11.2652 34.5072 21.4895 29.5711 24.0651C27.0405 25.3663 17.6867 28.658 19.765 21.7803C18.8744 21.0365 19.8307 19.2643 20.6124 17.8158C21.1847 16.7552 21.6633 15.8681 21.2549 15.6852C21.1104 15.6205 20.8915 15.7041 20.6816 15.7843C20.4171 15.8853 20.1668 15.9809 20.0978 15.7673C19.7481 14.6864 18.724 13.4924 16.3845 12.1689C13.504 10.5392 11.7355 10.4142 8.31908 10.1726C7.79134 10.1353 7.22429 10.0952 6.60774 10.0464C6.60774 10.0464 7.23976 7.66435 9.17866 7.98443C30.285 11.4687 35.6275 8.84717 35.6275 8.84717C34.2426 8.61854 32.4371 5.83416 32.9286 4.61562C33.1576 4.09518 33.5811 4.47545 34.2048 5.03547ZM22.7719 13.1106C22.6535 13.8086 22.0119 14.2844 21.339 14.1733C20.6661 14.0623 20.2166 13.4064 20.3351 12.7084C20.4536 12.0104 21.0951 11.5346 21.768 11.6456C22.4409 11.7567 22.8904 12.4126 22.7719 13.1106Z" fill="white"/>
<path d="M29.7693 23.9796C29.7119 26.6793 28.3975 30.0737 26.8452 30.155C25.2929 30.2363 24.0755 26.9866 24.1328 24.2869C24.1901 21.5872 25.4567 20.499 27.009 20.4176C28.5707 20.2814 29.8266 21.2798 29.7693 23.9796Z" fill="white"/>
</g>
<defs>
<clipPath id="clip0">
<rect width="42" height="32" fill="white"/>
</clipPath>
</defs>
</svg>
